<mxfile host="app.diagrams.net" modified="2024-02-22T09:18:32.040Z" agent="Mozilla/5.0 (Windows NT 10.0; Win64; x64) AppleWebKit/537.36 (KHTML, like Gecko) Chrome/120.0.0.0 Safari/537.36 OPR/106.0.0.0" etag="GB8U1_ghPl-CkhI3S_zK" version="23.1.5" type="github">
  <diagram name="PÃ¡gina-1" id="59WTOXKedcOPqIecnG1Y">
    <mxGraphModel dx="1009" dy="573" grid="1" gridSize="10" guides="1" tooltips="1" connect="1" arrows="1" fold="1" page="1" pageScale="1" pageWidth="827" pageHeight="1169" math="0" shadow="0">
      <root>
        <mxCell id="0" />
        <mxCell id="1" parent="0" />
        <mxCell id="pCXfOiSM0cW1PHxQLbcF-4" style="edgeStyle=orthogonalEdgeStyle;rounded=0;orthogonalLoop=1;jettySize=auto;html=1;exitX=1;exitY=0.5;exitDx=0;exitDy=0;" edge="1" parent="1" source="pCXfOiSM0cW1PHxQLbcF-1" target="pCXfOiSM0cW1PHxQLbcF-3">
          <mxGeometry relative="1" as="geometry" />
        </mxCell>
        <mxCell id="pCXfOiSM0cW1PHxQLbcF-1" value="&amp;lt;&amp;lt;device&amp;gt;&amp;gt;&lt;br&gt;User device" style="whiteSpace=wrap;html=1;aspect=fixed;" vertex="1" parent="1">
          <mxGeometry x="140" y="150" width="170" height="170" as="geometry" />
        </mxCell>
        <mxCell id="pCXfOiSM0cW1PHxQLbcF-3" value="&amp;lt;&amp;lt;device&amp;gt;&amp;gt;&lt;div&gt;&lt;br/&gt;&lt;/div&gt;" style="whiteSpace=wrap;html=1;aspect=fixed;" vertex="1" parent="1">
          <mxGeometry x="530" y="150" width="170" height="170" as="geometry" />
        </mxCell>
        <mxCell id="pCXfOiSM0cW1PHxQLbcF-5" value="HTTP request" style="text;html=1;align=center;verticalAlign=middle;resizable=0;points=[];autosize=1;strokeColor=none;fillColor=none;" vertex="1" parent="1">
          <mxGeometry x="360" y="208" width="100" height="30" as="geometry" />
        </mxCell>
      </root>
    </mxGraphModel>
  </diagram>
</mxfile>
